<svg version="1.1" id="Layer_1" xmlns="http://www.w3.org/2000/svg" xmlns:xlink="http://www.w3.org/1999/xlink" x="0px" y="0px"
	 width="100%" viewBox="0 0 284 371" enable-background="new 0 0 284 371" xml:space="preserve">
<path fill="#FDFDFC" opacity="1.000000" stroke="none" 
	d="
M142.000000,372.000000 
	C95.015717,372.000000 48.031437,372.000000 1.023578,372.000000 
	C1.023578,248.390411 1.023578,124.780823 1.023578,1.085617 
	C95.577866,1.085617 190.155823,1.085617 284.866882,1.085617 
	C284.866882,124.666573 284.866882,248.333267 284.866882,372.000000 
	C238.239426,372.000000 191.588364,372.000000 144.377686,371.608643 
	C143.906006,369.751709 143.993973,368.286163 144.046036,367.418701 
	C140.448029,367.575806 137.085602,367.722626 132.397919,367.927338 
	C137.335587,362.044617 141.271103,357.355835 145.662231,352.124268 
	C139.497498,351.529083 134.413940,351.038300 129.097351,350.524994 
	C129.004059,352.093262 128.919968,353.507172 128.876266,354.241760 
	C132.375473,354.241760 135.546341,354.241760 139.488312,354.241760 
	C134.937988,359.688324 130.953049,364.458160 126.857941,369.359833 
	C132.260468,370.301819 137.130234,371.150909 142.000000,372.000000 
M93.301254,264.737701 
	C93.301254,264.737701 93.362144,264.848969 93.259758,265.352020 
	C93.495392,265.576721 93.731026,265.801392 94.260223,266.634369 
	C94.727570,267.654327 95.194916,268.674286 95.369560,270.285522 
	C95.848961,270.899170 96.328354,271.512817 96.995361,272.684662 
	C97.162804,273.039520 97.330254,273.394348 97.267006,274.359039 
	C97.781364,274.947327 98.295723,275.535645 98.979614,276.523590 
	C98.979614,276.523590 99.159065,276.918884 99.141518,277.431305 
	C99.390648,277.644867 99.639778,277.858429 100.193367,278.621613 
	C100.589607,279.358002 100.985847,280.094391 101.293503,281.329956 
	C101.535423,281.540070 101.777351,281.750183 102.246765,282.398102 
	C102.427612,282.673340 102.622688,282.938110 102.869789,283.628204 
	C102.967674,283.920593 103.154640,284.135406 103.754562,284.817780 
	C104.162071,285.557892 104.569580,286.298004 104.972084,287.736938 
	C106.300629,289.655670 107.629173,291.574371 108.957710,293.493103 
	C109.433250,293.280914 109.908783,293.068695 110.384323,292.856476 
	C109.437675,290.136017 108.491035,287.415527 107.465530,283.803528 
	C107.385239,267.539703 107.304947,251.275864 107.641907,234.808914 
	C107.761261,234.397354 107.880615,233.985809 108.762581,233.551788 
	C115.299011,233.403061 121.835442,233.254349 128.849152,233.931122 
	C128.964737,245.685287 129.017609,257.440582 129.227188,269.193054 
	C129.309433,273.804138 129.742630,278.408997 129.886612,283.783386 
	C131.798264,292.329346 136.004120,296.048218 143.677643,295.977539 
	C151.231491,295.907959 155.901062,291.919159 157.043320,283.380096 
	C157.874069,277.169769 157.712891,270.818390 157.859818,264.526764 
	C158.099304,254.272812 158.229294,244.016281 158.658325,233.885178 
	C158.658325,233.885178 158.788666,233.635376 159.750366,233.579727 
	C166.140961,233.579727 172.531555,233.579727 179.700256,233.579727 
	C176.046478,227.033768 173.029404,221.332428 169.659592,215.847809 
	C169.006897,214.785538 166.981277,214.053772 165.581787,214.042267 
	C150.629135,213.919220 135.673889,213.890686 120.723015,214.098785 
	C119.181183,214.120255 117.075813,215.479050 116.239128,216.837631 
	C113.197662,221.776169 110.584564,226.978546 107.102112,232.051956 
	C106.081154,232.460892 105.060204,232.869827 103.103012,233.244507 
	C98.389000,233.253311 93.674995,233.262115 88.723396,232.778870 
	C88.161926,232.948395 87.600464,233.117935 86.337753,233.275696 
	C85.424713,233.414154 84.511665,233.552612 83.011414,233.930145 
	C83.557320,236.032501 84.103218,238.134842 84.763512,240.828018 
	C84.824234,241.224579 84.884964,241.621155 84.523918,242.449280 
	C85.262939,244.022812 86.001961,245.596344 86.901360,247.745712 
	C87.004257,248.130692 87.107162,248.515671 87.122261,249.389175 
	C87.174805,249.748978 87.367378,250.002335 87.921913,250.828354 
	C88.382248,252.179825 88.842583,253.531281 89.109428,255.478256 
	C89.423035,255.964996 89.736641,256.451721 90.248291,257.537537 
	C90.414986,257.923462 90.581680,258.309357 90.405663,259.273071 
	C91.064194,260.305389 91.722725,261.337677 92.639038,262.919098 
	C92.778778,263.298370 92.918526,263.677673 92.726654,264.169739 
	C92.904228,264.319153 93.081795,264.468567 93.301254,264.737701 
M184.756332,281.090790 
	C184.867020,280.739777 184.977692,280.388733 185.009003,280.022308 
	C185.009003,280.022308 185.058014,280.086609 185.543289,279.721649 
	C185.754471,279.165039 185.965668,278.608429 186.074997,278.057037 
	C186.074997,278.057037 186.108124,278.153503 186.612961,277.790527 
	C186.814651,277.213531 187.016327,276.636566 187.096115,276.064087 
	C187.096115,276.064087 187.135010,276.179718 187.690659,275.767548 
	C189.171249,272.536438 190.651855,269.305328 192.045746,266.029205 
	C192.045746,266.029205 192.081116,266.120270 192.615875,265.656189 
	C193.619766,263.140625 194.623642,260.625031 196.054413,257.506317 
	C197.409897,253.206223 198.765381,248.906143 200.703613,244.045975 
	C201.649185,240.754013 202.594757,237.462051 203.744736,233.458481 
	C196.631073,233.458481 190.354248,233.458481 183.689545,233.195480 
	C183.356812,233.113693 183.065170,233.189697 181.943634,233.449814 
	C178.312088,233.549713 179.455338,236.378601 179.445892,238.214691 
	C179.358810,255.125458 179.394547,272.036835 179.394547,289.498932 
	C180.497391,287.763550 181.556122,286.097565 182.866531,284.169983 
	C182.920822,283.934998 182.944702,283.696960 183.589966,283.139740 
	C183.858795,282.485382 184.127640,281.830994 184.207214,281.140198 
	C184.207214,281.140198 184.245102,281.329163 184.756332,281.090790 
M179.578598,94.968254 
	C179.663376,95.474236 179.748154,95.980209 179.498062,97.103943 
	C179.587769,98.003456 179.677475,98.902962 179.529572,100.678383 
	C179.607239,102.179871 179.684891,103.681351 179.462738,105.869888 
	C179.562103,106.847305 179.661453,107.824715 179.521439,109.734077 
	C179.590851,116.531174 179.660248,123.328270 179.443649,130.503052 
	C179.443649,130.503052 179.658035,130.925552 179.344162,131.644974 
	C179.322098,132.424942 179.300034,133.204895 178.974335,134.710251 
	C177.332489,146.043106 170.778503,153.592560 160.114563,157.783569 
	C174.966553,182.295746 189.372665,206.072052 204.356003,230.801010 
	C209.332367,208.503586 210.503052,187.352814 208.020081,166.048599 
	C204.942459,139.642075 197.264832,114.717667 183.122681,91.247925 
	C182.402420,90.027107 181.682159,88.806290 180.961884,87.585472 
	C180.577179,87.887672 180.192474,88.189873 179.492615,89.198311 
	C179.616989,90.972954 179.741364,92.747589 179.578598,94.968254 
M79.191261,40.603561 
	C82.403290,41.216587 85.934883,44.121567 88.496941,39.502781 
	C85.329956,38.699039 82.304367,37.931183 79.278786,37.163326 
	C79.665886,36.899475 80.052994,36.635624 80.440102,36.371777 
	C79.208076,33.743584 78.641113,29.732876 76.613907,28.757689 
	C71.432747,26.265287 69.081711,31.787727 65.837967,33.763592 
	C70.010353,38.829624 73.999146,43.672741 78.111656,48.666065 
	C79.054451,47.852612 80.279427,46.795685 81.128136,46.063412 
	C79.657982,44.426277 78.375786,42.998451 77.784561,41.083561 
	C77.999046,40.900795 78.213539,40.718033 79.191261,40.603561 
M187.143463,348.663086 
	C192.301163,350.292633 197.458878,351.922180 203.447601,353.814301 
	C199.977966,347.448914 196.961807,341.915497 193.850983,336.208435 
	C192.919067,336.852509 191.872971,337.575470 191.331696,337.949524 
	C193.037689,341.113556 194.588562,343.989929 195.796631,347.240021 
	C195.697739,347.377167 195.598862,347.514282 194.746613,347.599854 
	C189.212524,346.915771 184.243027,341.679962 178.945053,344.582611 
	C182.272186,350.392822 185.392090,355.841095 188.634430,361.503204 
	C189.390182,361.023956 190.459076,360.346100 191.124130,359.924377 
	C189.073364,356.298981 187.144424,352.888947 185.830521,349.057770 
	C186.021820,348.899200 186.213135,348.740662 187.143463,348.663086 
M107.323883,108.499840 
	C107.323883,101.191399 107.323883,93.882957 107.323883,86.574509 
	C79.030128,131.092804 71.208351,178.854187 82.100037,231.323639 
	C97.017052,205.983490 111.222282,181.852478 125.630959,157.375839 
	C111.598480,151.171326 107.130341,139.907501 107.331955,125.986366 
	C107.411530,120.491913 107.333260,114.995178 107.323883,108.499840 
M129.149704,91.537704 
	C129.152451,102.684868 129.071564,113.833076 129.211594,124.978516 
	C129.250916,128.108002 129.622147,131.310516 130.396271,134.337570 
	C132.030701,140.728638 136.556046,144.030701 143.127457,144.125549 
	C151.042099,144.239761 156.028290,140.560135 156.921356,132.101105 
	C157.912369,122.714439 157.671570,113.191360 157.831100,103.725380 
	C157.950623,96.633026 157.854706,89.537041 157.854706,81.796219 
	C164.478317,81.796219 170.450974,81.796219 177.122559,81.796219 
	C167.276413,67.139221 156.246048,54.888805 143.158966,44.030533 
	C130.277298,55.193264 118.827286,67.137260 109.242508,82.227928 
	C116.555214,82.227928 122.646919,82.227928 129.150726,82.227928 
	C129.150726,85.290871 129.150726,87.920509 129.149704,91.537704 
M143.106140,168.650909 
	C142.839691,168.587219 142.370514,168.412003 142.335510,168.475647 
	C137.172028,177.861282 132.039993,187.264191 126.772179,196.912537 
	C137.841339,196.912537 148.209579,196.912537 159.085495,196.912537 
	C153.754440,187.359863 148.674408,178.257004 143.106140,168.650909 
M149.790192,311.601990 
	C139.318893,313.023926 129.365768,310.869293 119.722565,306.575531 
	C119.408195,307.077545 119.093834,307.579590 118.779472,308.081604 
	C126.657196,315.993805 134.534927,323.906006 142.589508,331.995850 
	C151.082535,324.420349 158.627106,317.941864 163.634079,308.779510 
	C159.308060,309.674561 154.982040,310.569611 149.790192,311.601990 
M242.175980,58.912956 
	C239.310181,61.250469 236.444397,63.587986 233.317032,66.138840 
	C232.203583,59.551662 237.664734,53.444069 233.935684,47.665516 
	C228.630386,51.798737 223.682114,55.653824 218.584961,59.624886 
	C219.084824,60.284695 219.846924,61.290623 220.383560,61.998955 
	C223.884872,59.256649 227.162933,56.689194 231.455765,53.326942 
	C230.295502,60.597637 229.349792,66.523750 228.254730,73.385849 
	C234.039062,69.018547 239.028366,65.251503 244.192474,61.352486 
	C243.795776,60.790245 243.237366,59.998779 242.175980,58.912956 
M112.972755,357.288177 
	C112.871979,357.420807 112.789307,357.575531 112.663940,357.678101 
	C112.583153,357.744202 112.346581,357.773376 112.337448,357.751923 
	C110.717964,353.951538 109.274101,350.064819 107.437706,346.373322 
	C106.541481,344.571808 104.914581,343.133759 103.895401,341.873657 
	C101.353554,348.391541 99.083458,354.212585 96.731384,360.243866 
	C97.448982,360.533661 98.609772,361.002411 99.443375,361.339050 
	C101.118599,356.995728 102.667198,352.980743 104.608780,347.946869 
	C107.248650,354.779541 109.473862,360.538940 112.014839,367.115662 
	C114.812340,360.300323 117.178017,354.536987 119.640259,348.538391 
	C118.665237,348.168671 117.541489,347.742523 116.685707,347.418030 
	C115.450829,350.705292 114.349190,353.637878 112.972755,357.288177 
M12.215242,210.683060 
	C10.470622,213.519653 5.924823,215.082504 7.666598,219.053711 
	C14.260633,218.320572 20.488789,217.628113 26.890623,216.916351 
	C26.703831,216.011230 26.451799,214.789978 26.283689,213.975388 
	C21.766642,214.493393 17.604208,214.970718 12.387261,215.568985 
	C17.138416,210.127319 21.177511,205.501190 25.781784,200.227753 
	C18.535997,200.894150 12.392165,201.459198 5.978271,202.049088 
	C6.044298,202.905762 6.140308,204.151443 6.219792,205.182709 
	C10.031765,204.705994 13.522997,204.269379 18.246462,203.678665 
	C15.859688,206.472839 14.286798,208.314194 12.215242,210.683060 
M163.808929,11.211855 
	C162.557816,15.075698 161.306717,18.939541 159.945251,23.144205 
	C160.791351,23.380718 162.105255,23.748001 163.023376,24.004646 
	C164.304382,19.560692 165.464691,15.535473 166.948975,10.386392 
	C170.143402,16.985573 172.762482,22.396189 175.873886,28.823870 
	C178.090103,21.810751 179.956558,15.904387 181.921280,9.687118 
	C180.959122,9.452735 179.775192,9.164330 178.945877,8.962307 
	C177.856293,12.606803 176.864883,15.922925 175.840317,19.349947 
	C170.636185,15.194577 172.332748,6.293140 164.885437,4.756181 
	C164.526489,7.081242 164.266205,8.767239 163.808929,11.211855 
M264.887787,153.933456 
	C266.016174,152.685059 266.689514,151.646713 268.680756,153.502853 
	C270.001709,154.734207 273.149963,155.215759 274.813171,154.494568 
	C276.196472,153.894745 277.137054,151.101669 277.314911,149.190811 
	C277.537262,146.802383 276.778046,144.322586 276.490753,142.232513 
	C269.932281,143.313507 263.743378,144.333572 257.406494,145.378036 
	C257.614746,146.502533 257.868378,147.871918 258.074951,148.987396 
	C260.700897,148.541870 262.857086,148.176056 265.337921,147.755173 
	C264.095581,152.080093 256.974823,152.890503 259.672455,158.464737 
	C261.318726,157.026855 262.804962,155.728714 264.887787,153.933456 
M17.088865,120.096642 
	C22.339476,121.839691 27.590086,123.582733 33.036232,125.390694 
	C33.801849,122.847244 34.954090,119.889824 35.553925,116.824303 
	C36.471931,112.132683 33.823002,107.585411 29.406893,106.135979 
	C25.081606,104.716362 20.915945,105.233292 18.478771,109.452400 
	C16.766939,112.415840 15.929151,115.887230 14.797424,119.165070 
	C14.769104,119.247093 15.869811,119.718925 17.088865,120.096642 
M210.114044,27.553396 
	C207.819199,30.380123 205.471924,33.166222 203.242142,36.043377 
	C200.131622,40.056957 200.349365,42.797787 203.891129,45.992538 
	C207.904083,49.612301 211.100235,49.668736 214.716232,45.921257 
	C217.627426,42.904205 220.333923,39.689655 223.295807,36.378750 
	C221.955353,35.491364 220.646255,34.624725 219.733765,34.020649 
	C216.654068,37.729088 214.145584,41.245331 211.058975,44.146500 
	C210.199417,44.954418 207.211594,44.499641 205.983932,43.578983 
	C205.094925,42.912292 204.768311,40.015381 205.471390,38.997196 
	C207.235504,36.442413 209.705078,34.368065 211.937073,32.146610 
	C212.754486,31.333067 213.699722,30.647947 214.586639,29.904243 
	C213.118210,28.885700 211.649796,27.867157 210.114044,27.553396 
M18.772743,243.674973 
	C16.847633,244.003387 14.922523,244.331787 12.748041,244.702744 
	C12.998083,245.917267 13.284848,247.310150 13.550111,248.598602 
	C17.910658,247.455048 22.001289,246.316986 26.125664,245.318298 
	C30.622683,244.229385 31.868296,241.292526 31.083582,237.076508 
	C30.215067,232.410248 27.646959,230.166916 23.224705,230.740860 
	C19.295113,231.250854 15.423945,232.207764 11.522911,232.945847 
	C11.111447,233.023712 10.672506,232.956329 9.806184,232.956329 
	C10.336619,234.564453 10.757808,235.841385 10.984823,236.529633 
	C15.470514,235.464188 19.434490,234.139542 23.485834,233.768295 
	C24.903019,233.638428 27.211521,235.544983 27.914253,237.072922 
	C29.027586,239.493668 27.859858,241.564590 24.909807,242.152328 
	C23.121296,242.508636 21.358364,242.993347 18.772743,243.674973 
M266.223816,120.060104 
	C261.613129,121.262810 257.002441,122.465508 252.377716,123.671875 
	C254.558075,134.523438 254.558075,134.523438 258.770752,133.387009 
	C257.770935,131.241669 256.733826,129.016373 255.576492,126.533081 
	C258.024841,125.856941 259.600739,125.421745 261.616302,124.865120 
	C262.153290,127.005394 262.641174,128.949936 263.169983,131.057693 
	C264.430634,130.570374 265.602936,130.117218 266.536163,129.756485 
	C265.763031,127.847473 265.093353,126.193939 264.268341,124.156776 
	C266.143158,123.644478 267.666351,123.228264 269.607727,122.697792 
	C269.822083,125.096588 269.991394,126.991600 270.183228,129.138397 
	C271.444305,129.064270 272.520294,129.001022 273.776550,128.927185 
	C272.701660,125.178093 271.709625,121.717911 270.708679,118.226585 
	C269.325409,118.847969 268.155029,119.373711 266.223816,120.060104 
M227.088257,329.294067 
	C227.241165,329.929169 227.394089,330.564270 227.870270,332.541931 
	C229.314362,330.934113 230.232437,329.911987 231.150513,328.889832 
	C230.543854,328.795959 229.937195,328.702118 229.330536,328.608276 
	C228.850952,325.867249 228.371368,323.126190 227.891785,320.385162 
	C230.781342,320.385162 233.670898,320.385162 237.550385,320.385162 
	C237.621460,320.282196 238.496521,319.014374 239.331085,317.805237 
	C232.154556,315.806519 225.466843,313.943909 217.869965,311.828125 
	C221.236496,318.138947 224.039963,323.394257 227.088257,329.294067 
M12.117859,136.852020 
	C12.728592,136.112152 13.339325,135.372284 14.059677,134.499619 
	C12.977694,133.991898 12.049414,133.556290 11.082740,133.102676 
	C10.420290,136.737808 9.806977,140.103302 9.256423,143.124435 
	C15.589231,144.391510 21.757557,145.625687 28.117435,146.898193 
	C28.806747,143.475647 29.514355,139.962250 30.242027,136.349243 
	C28.636522,135.795837 27.461407,135.390778 26.630320,135.104309 
	C26.508623,137.786270 26.400278,140.173981 26.264908,143.157318 
	C23.687485,142.515015 22.034250,142.103027 20.091164,141.618805 
	C20.679703,139.536636 21.154093,137.858307 21.736423,135.798096 
	C20.396126,135.577347 19.097118,135.363419 18.079262,135.195786 
	C17.832283,137.408875 17.640007,139.131775 17.447733,140.854691 
	C16.950008,141.159225 16.452284,141.463760 15.954558,141.768295 
	C14.673508,140.392624 13.392457,139.016953 12.117859,136.852020 
M107.726196,21.579460 
	C112.352226,26.696854 117.164017,27.601864 122.648338,23.995678 
	C123.830269,23.218510 124.266197,21.306808 125.045753,19.917711 
	C124.669044,19.706303 124.292336,19.494894 123.915627,19.283485 
	C118.682976,23.799999 114.322281,24.648516 112.018532,20.719254 
	C106.706329,11.658820 110.842430,8.057550 120.531929,8.248466 
	C120.115570,7.122603 119.705811,6.014594 119.310944,4.946838 
	C106.744904,8.157187 104.031784,11.865026 107.726196,21.579460 
M133.537338,20.963888 
	C134.600449,21.397118 135.663574,21.830349 135.637756,21.819834 
	C137.970261,18.906633 139.738968,16.697599 141.507660,14.488563 
	C143.441071,16.693195 145.374466,18.897827 147.763885,21.622456 
	C147.975494,21.622456 149.352524,21.622456 150.892441,21.622456 
	C147.829041,14.963710 144.897202,8.590937 141.666595,1.568771 
	C138.851273,8.392179 136.392868,14.350554 133.537338,20.963888 
M261.385651,92.568176 
	C260.785919,91.164627 260.186188,89.761070 259.605713,88.402527 
	C254.665039,94.013809 249.976944,99.338242 244.628677,105.412460 
	C252.620438,105.853249 259.741608,106.246025 267.133179,106.653717 
	C266.605377,105.310173 266.190338,104.253685 265.642487,102.859192 
	C261.176453,102.859192 256.704712,102.859192 250.774475,102.859192 
	C255.060150,98.966751 258.216034,96.100426 261.385651,92.568176 
M46.272255,84.317535 
	C46.887508,85.213890 47.502762,86.110245 48.221226,87.156975 
	C52.438507,82.259727 45.222649,81.446587 45.722317,77.392731 
	C47.458359,72.101364 51.585415,75.324677 55.245407,76.068542 
	C55.953873,74.763611 56.629238,73.519661 57.392376,72.114037 
	C50.072685,71.253288 43.122955,70.436050 35.399155,69.527786 
	C39.359989,74.902473 42.613159,79.316887 46.272255,84.317535 
M160.919754,367.526520 
	C161.957672,365.576721 162.995575,363.626892 164.033478,361.677063 
	C166.243195,363.383087 168.452927,365.089111 170.662643,366.795135 
	C170.431717,367.178864 170.200790,367.562561 169.969864,367.946259 
	C171.384476,367.617767 172.799088,367.289276 174.415100,366.914001 
	C170.165466,360.994629 166.093307,355.322479 161.477936,348.893677 
	C159.989166,356.587952 158.715927,363.168304 157.236572,370.813904 
	C158.799835,369.793091 159.873871,369.091766 160.919754,367.526520 
M81.716385,342.126770 
	C81.541451,344.835754 81.366524,347.544739 81.145752,350.963501 
	C81.475151,351.226105 82.581955,352.108551 83.797836,353.077942 
	C85.438225,346.255188 87.001526,339.753113 88.564827,333.251007 
	C88.164719,332.955872 87.764610,332.660706 87.364502,332.365570 
	C81.639038,335.683319 75.913582,339.001099 70.188126,342.318848 
	C70.319626,342.815247 70.451126,343.311676 70.582634,343.808075 
	C72.036774,343.498993 73.489738,343.184265 74.945351,342.882233 
	C76.972557,342.461609 79.001740,342.050476 81.716385,342.126770 
M275.255615,233.520523 
	C268.837189,235.616745 262.624512,240.007111 255.453094,234.708740 
	C255.090149,236.761734 254.822495,238.275635 254.508453,240.051971 
	C263.245300,238.763275 266.759583,245.436264 271.615601,250.043472 
	C275.320953,244.276917 267.105560,244.298615 267.069366,240.025620 
	C269.565765,239.338379 272.165405,238.622711 274.862579,237.880188 
	C275.107147,236.698502 275.375580,235.401428 275.255615,233.520523 
M273.299774,172.239655 
	C274.479156,171.732056 275.658569,171.224457 276.837952,170.716843 
	C276.837952,172.767258 276.837952,174.817673 276.837952,178.492401 
	C278.450409,176.511078 280.073792,175.371933 279.932953,174.526794 
	C279.532440,172.123718 278.849915,169.482697 277.372589,167.676041 
	C276.728821,166.888748 273.530365,167.364944 272.115234,168.256424 
	C270.572266,169.228439 269.941010,171.541794 268.548126,172.895767 
	C267.640442,173.778091 266.083130,173.992157 264.816833,174.505569 
	C264.333496,173.077728 263.619537,171.675308 263.458099,170.211960 
	C263.369080,169.404907 264.207703,168.495514 264.628174,167.632248 
	C264.236206,167.304169 263.844238,166.976089 263.452240,166.648026 
	C262.368317,167.913803 260.158691,169.504364 260.412506,170.384186 
	C261.160156,172.975616 262.303192,176.408890 264.349335,177.467056 
	C268.379303,179.551178 271.043915,176.430817 273.299774,172.239655 
M259.447632,211.744171 
	C259.401062,212.536957 259.354492,213.329742 259.327789,213.784286 
	C264.874359,214.307571 270.195862,214.809631 276.133667,215.369827 
	C275.418823,217.916565 274.882629,219.826874 274.318573,221.836319 
	C275.580078,221.836319 276.790680,221.836319 277.816620,221.836319 
	C278.437958,216.420532 279.021759,211.331848 279.631439,206.017746 
	C278.594330,205.859543 277.383118,205.674789 276.165771,205.489105 
	C276.165771,207.806778 276.165771,209.794098 276.165771,212.287216 
	C270.726654,211.366043 265.869965,210.507446 260.993103,209.784988 
	C260.596161,209.726166 260.061340,210.597748 259.447632,211.744171 
M59.768215,60.724129 
	C61.156216,61.808674 62.544220,62.893215 63.960621,63.999950 
	C64.461914,63.357483 65.343552,62.227547 66.052895,61.318432 
	C63.622929,59.360172 61.516987,57.663033 58.450371,55.191704 
	C60.586494,53.650627 62.150715,52.522144 63.879017,51.275284 
	C62.653034,50.290699 61.641773,49.478558 60.807346,48.808430 
	C59.467525,50.591625 58.252872,52.208225 56.776478,54.173183 
	C55.250374,52.741611 54.212749,51.768261 52.776390,50.420876 
	C54.966061,48.615292 56.645519,47.230427 58.502102,45.699509 
	C57.480461,44.927776 56.503326,44.189667 55.606590,43.512283 
	C53.163628,46.573277 50.916496,49.388901 49.046249,51.732292 
	C52.648190,54.746113 55.939438,57.499973 59.768215,60.724129 
M9.313974,171.051285 
	C9.164859,169.336761 9.015744,167.622238 8.830467,165.491928 
	C14.773776,166.081802 20.022499,166.602737 25.549479,167.151291 
	C25.629286,166.040756 25.730503,164.632294 25.815611,163.447968 
	C20.165539,162.964752 14.830523,162.508469 8.932933,162.004059 
	C9.640429,159.502899 10.145280,157.718140 10.719261,155.688995 
	C9.410152,155.606583 8.214883,155.531342 7.204885,155.467758 
	C6.684128,161.110413 6.203010,166.323563 5.692729,171.852707 
	C7.031227,171.852707 7.994111,171.852707 9.313974,171.051285 
M74.203140,324.814758 
	C75.100304,323.996307 75.997475,323.177826 76.730049,322.509521 
	C72.842186,318.290680 69.271751,314.416290 65.496506,310.319672 
	C64.616249,311.476227 63.882191,312.440704 63.425831,313.040314 
	C65.177795,314.460144 66.598007,315.611145 68.306061,316.995422 
	C63.756374,321.025818 59.772446,324.555023 55.662903,328.195496 
	C56.459167,329.072144 57.449890,330.162872 58.273548,331.069702 
	C62.293629,327.244080 66.223312,323.504486 70.796806,319.152222 
	C71.871696,321.378479 72.680542,323.053680 74.203140,324.814758 
M87.575096,19.039755 
	C90.714920,24.190954 93.854744,29.342154 97.125343,34.707897 
	C97.884453,34.247456 99.221062,33.436737 99.992996,32.968517 
	C96.757751,27.210133 93.679733,21.731588 90.493309,16.060095 
	C89.447388,16.811913 88.263680,17.662769 87.575096,19.039755 
M267.711975,190.013657 
	C265.525818,189.858932 263.339691,189.704224 261.180420,189.551407 
	C261.180420,190.977692 261.180420,192.330109 261.180420,193.932648 
	C267.629089,193.932648 273.740906,193.932648 280.019989,193.932648 
	C280.019989,192.757248 280.019989,191.199722 280.019989,190.017700 
	C276.070526,190.017700 272.356995,190.017700 267.711975,190.013657 
M214.777710,336.747620 
	C211.845673,333.318604 208.913651,329.889557 205.592407,326.005341 
	C204.631592,326.909698 203.504303,327.970734 202.914413,328.525940 
	C207.556473,333.803711 211.646255,338.453552 215.873810,343.260040 
	C216.657730,342.511444 217.755508,341.463135 218.722702,340.539520 
	C217.369553,339.273743 216.303696,338.276703 214.777710,336.747620 
M251.967163,74.138657 
	C246.483963,77.321678 241.000763,80.504707 235.318130,83.803505 
	C235.796860,84.638252 236.508881,85.879784 236.976639,86.695389 
	C242.668503,83.552628 248.177200,80.511009 253.805115,77.403564 
	C253.408279,76.685204 252.856903,75.687057 251.967163,74.138657 
M34.016155,281.360809 
	C31.998911,283.841614 31.915808,286.505096 34.647823,288.135925 
	C35.935875,288.904846 38.788723,288.690247 39.858826,287.727661 
	C40.937630,286.757233 41.481754,283.153412 40.864372,282.727722 
	C39.172260,281.561035 36.746647,281.458191 34.016155,281.360809 
M244.190063,283.004456 
	C244.173462,287.779572 246.783157,290.403564 250.079086,288.659698 
	C251.328476,287.998627 252.744125,286.166626 252.695969,284.922089 
	C252.638428,283.435211 251.280350,280.998169 250.147980,280.787476 
	C248.443375,280.470306 246.445755,281.727936 244.190063,283.004456 
M22.677013,187.432999 
	C24.833920,187.069260 24.833920,187.069260 24.435907,183.878693 
	C17.984692,183.878693 11.579718,183.878693 4.966678,183.878693 
	C5.077970,185.439148 5.156763,186.543945 5.208229,187.265579 
	C10.936536,187.265579 16.377720,187.265579 22.677013,187.432999 
z"/>
<path fill="#232323" opacity="1.000000" stroke="none" 
	d="
M142.333328,372.000000 
	C137.130234,371.150909 132.260468,370.301819 126.857941,369.359833 
	C130.953049,364.458160 134.937988,359.688324 139.488312,354.241760 
	C135.546341,354.241760 132.375473,354.241760 128.876266,354.241760 
	C128.919968,353.507172 129.004059,352.093262 129.097351,350.524994 
	C134.413940,351.038300 139.497498,351.529083 145.662231,352.124268 
	C141.271103,357.355835 137.335587,362.044617 132.397919,367.927338 
	C137.085602,367.722626 140.448029,367.575806 144.046036,367.418701 
	C143.993973,368.286163 143.906006,369.751709 143.909027,371.608643 
	C143.555557,372.000000 143.111099,372.000000 142.333328,372.000000 
z"/>
<path fill="#075C29" opacity="1.000000" stroke="none" 
	d="
M107.325371,108.999664 
	C107.333260,114.995178 107.411530,120.491913 107.331955,125.986366 
	C107.130341,139.907501 111.598480,151.171326 125.630959,157.375839 
	C111.222282,181.852478 97.017052,205.983490 82.100037,231.323639 
	C71.208351,178.854187 79.030128,131.092804 107.323883,86.574509 
	C107.323883,93.882957 107.323883,101.191399 107.325371,108.999664 
z"/>
<path fill="#15228D" opacity="1.000000" stroke="none" 
	d="
M183.280869,91.925026 
	C197.264832,114.717667 204.942459,139.642075 208.020081,166.048599 
	C210.503052,187.352814 209.332367,208.503586 204.356003,230.801010 
	C189.372665,206.072052 174.966553,182.295746 160.114563,157.783569 
	C170.778503,153.592560 177.332489,146.043106 179.494141,134.219894 
	C180.343307,132.017365 180.943375,130.307465 180.957840,128.592636 
	C181.047775,117.932861 180.913696,107.270279 181.109833,96.613342 
	C181.138840,95.037788 182.523453,93.487175 183.280869,91.925026 
z"/>
<path fill="#D70708" opacity="1.000000" stroke="none" 
	d="
M129.150208,91.043930 
	C129.150726,87.920509 129.150726,85.290871 129.150726,82.227928 
	C122.646919,82.227928 116.555214,82.227928 109.242508,82.227928 
	C118.827286,67.137260 130.277298,55.193264 143.158966,44.030533 
	C156.246048,54.888805 167.276413,67.139221 177.122559,81.796219 
	C170.450974,81.796219 164.478317,81.796219 157.854706,81.796219 
	C157.854706,89.537041 157.950623,96.633026 157.831100,103.725380 
	C157.671570,113.191360 157.912369,122.714439 156.921356,132.101105 
	C156.028290,140.560135 151.042099,144.239761 143.127457,144.125549 
	C136.556046,144.030701 132.030701,140.728638 130.396271,134.337570 
	C129.622147,131.310516 129.250916,128.108002 129.211594,124.978516 
	C129.071564,113.833076 129.152451,102.684868 129.150208,91.043930 
z"/>
<path fill="#8F1B08" opacity="1.000000" stroke="none" 
	d="
M128.371872,233.105637 
	C121.835442,233.254349 115.299011,233.403061 108.381355,233.183685 
	C107.936729,232.570862 107.873329,232.326141 107.809921,232.081421 
	C110.584564,226.978546 113.197662,221.776169 116.239128,216.837631 
	C117.075813,215.479050 119.181183,214.120255 120.723015,214.098785 
	C135.673889,213.890686 150.629135,213.919220 165.581787,214.042267 
	C166.981277,214.053772 169.006897,214.785538 169.659592,215.847809 
	C173.029404,221.332428 176.046478,227.033768 179.700256,233.579727 
	C172.531555,233.579727 166.140961,233.579727 159.254150,233.470184 
	C158.757919,233.360641 158.382721,233.430237 158.382721,233.430237 
	C158.382721,233.430237 158.405502,233.760849 158.405502,233.760849 
	C158.229294,244.016281 158.099304,254.272812 157.859818,264.526764 
	C157.712891,270.818390 157.874069,277.169769 157.043320,283.380096 
	C155.901062,291.919159 151.231491,295.907959 143.677643,295.977539 
	C136.004120,296.048218 131.798264,292.329346 130.243027,283.099304 
	C130.729370,266.891174 130.903931,251.367081 130.876343,235.843338 
	C130.874725,234.929291 129.244324,234.018143 128.371872,233.105637 
z"/>
<path fill="#F9B40F" opacity="1.000000" stroke="none" 
	d="
M83.598625,233.691071 
	C84.511665,233.552612 85.424713,233.414154 86.828972,233.474121 
	C87.867126,233.538666 88.414055,233.404785 88.960983,233.270905 
	C93.674995,233.262115 98.389000,233.253311 103.762283,233.496597 
	C105.355919,234.169800 106.290283,234.590927 107.224655,235.012039 
	C107.304947,251.275864 107.385239,267.539703 107.328278,284.535004 
	C106.453041,285.857025 105.715073,286.447571 104.977097,287.038116 
	C104.569580,286.298004 104.162071,285.557892 103.680748,284.296936 
	C103.348625,283.581543 103.090317,283.386932 102.832008,283.192352 
	C102.622688,282.938110 102.427612,282.673340 102.135056,281.942169 
	C101.922737,281.157043 101.708984,280.938538 101.382080,280.830780 
	C100.985847,280.094391 100.589607,279.358002 100.046814,278.091187 
	C99.653191,277.346832 99.406128,277.132843 99.159065,276.918884 
	C99.159065,276.918884 98.979614,276.523590 98.956520,276.020844 
	C98.454849,274.928467 97.976273,274.338837 97.497696,273.749207 
	C97.330254,273.394348 97.162804,273.039520 96.972595,272.110352 
	C96.520638,270.922119 96.091454,270.308167 95.662270,269.694244 
	C95.194916,268.674286 94.727570,267.654327 94.129906,266.086914 
	C93.910614,265.195251 93.698135,264.965088 93.362144,264.848969 
	C93.362144,264.848969 93.301254,264.737701 93.285538,264.518311 
	C93.269829,264.298920 93.058266,264.056946 93.058266,264.056946 
	C92.918526,263.677673 92.778778,263.298370 92.604462,262.340546 
	C91.962715,260.739746 91.355545,259.717529 90.748383,258.695282 
	C90.581680,258.309357 90.414986,257.923462 90.191750,256.945679 
	C89.857773,255.863495 89.580338,255.373123 89.302902,254.882751 
	C88.842583,253.531281 88.382248,252.179825 87.879715,250.241394 
	C87.628372,249.403183 87.419220,249.151917 87.210068,248.900650 
	C87.107162,248.515671 87.004257,248.130692 86.895088,247.101868 
	C86.241112,244.977921 85.593399,243.497818 84.945694,242.017715 
	C84.884964,241.621155 84.824234,241.224579 84.806824,240.130005 
	C84.432968,237.518341 84.015793,235.604706 83.598625,233.691071 
z"/>
<path fill="#206AB2" opacity="1.000000" stroke="none" 
	d="
M182.938171,283.455902 
	C182.944702,283.696960 182.920822,283.934998 182.365387,283.995361 
	C181.671082,283.551208 181.310745,283.282990 181.308716,283.012054 
	C181.196091,267.887543 181.075134,252.762634 181.127060,237.638382 
	C181.130035,236.773727 182.542892,235.196899 183.345078,235.166885 
	C189.089584,234.951828 194.845901,235.051941 200.761902,235.051941 
	C200.514313,238.741898 200.317581,241.673981 200.120850,244.606049 
	C198.765381,248.906143 197.409897,253.206223 195.469757,257.903076 
	C193.950455,260.906677 193.015778,263.513458 192.081116,266.120270 
	C192.081116,266.120270 192.045746,266.029205 191.724304,266.074036 
	C189.980225,269.472473 188.557617,272.826080 187.135010,276.179718 
	C187.135010,276.179718 187.096115,276.064087 186.858871,276.199341 
	C186.450455,276.940887 186.279282,277.547211 186.108124,278.153503 
	C186.108124,278.153503 186.074997,278.057037 185.839355,278.192078 
	C185.421799,278.913605 185.239899,279.500122 185.058014,280.086609 
	C185.058014,280.086609 185.009003,280.022308 184.798553,280.158386 
	C184.473755,280.639343 184.359421,280.984253 184.245087,281.329163 
	C184.245102,281.329163 184.207214,281.140198 183.942993,281.270325 
	C183.431915,282.085602 183.185043,282.770752 182.938171,283.455902 
z"/>
<path fill="#070707" opacity="1.000000" stroke="none" 
	d="
M143.350250,168.902527 
	C148.674408,178.257004 153.754440,187.359863 159.085495,196.912537 
	C148.209579,196.912537 137.841339,196.912537 126.772179,196.912537 
	C132.039993,187.264191 137.172028,177.861282 142.335510,168.475647 
	C142.370514,168.412003 142.839691,168.587219 143.350250,168.902527 
z"/>
<path fill="#EF5E17" opacity="1.000000" stroke="none" 
	d="
M150.223114,311.533325 
	C154.982040,310.569611 159.308060,309.674561 163.634079,308.779510 
	C158.627106,317.941864 151.082535,324.420349 142.589508,331.995850 
	C134.534927,323.906006 126.657196,315.993805 118.779472,308.081604 
	C119.093834,307.579590 119.408195,307.077545 119.722565,306.575531 
	C129.365768,310.869293 139.318893,313.023926 150.223114,311.533325 
z"/>
<path fill="#232323" opacity="1.000000" stroke="none" 
	d="
M242.427460,59.060135 
	C243.237366,59.998779 243.795776,60.790245 244.192474,61.352486 
	C239.028366,65.251503 234.039062,69.018547 228.254730,73.385849 
	C229.349792,66.523750 230.295502,60.597637 231.455765,53.326942 
	C227.162933,56.689194 223.884872,59.256649 220.383560,61.998955 
	C219.846924,61.290623 219.084824,60.284695 218.584961,59.624886 
	C223.682114,55.653824 228.630386,51.798737 233.935684,47.665516 
	C237.664734,53.444069 232.203583,59.551662 233.317032,66.138840 
	C236.444397,63.587986 239.310181,61.250469 242.427460,59.060135 
z"/>
<path fill="#212121" opacity="1.000000" stroke="none" 
	d="
M113.110153,356.929321 
	C114.349190,353.637878 115.450829,350.705292 116.685707,347.418030 
	C117.541489,347.742523 118.665237,348.168671 119.640259,348.538391 
	C117.178017,354.536987 114.812340,360.300323 112.014839,367.115662 
	C109.473862,360.538940 107.248650,354.779541 104.608780,347.946869 
	C102.667198,352.980743 101.118599,356.995728 99.443375,361.339050 
	C98.609772,361.002411 97.448982,360.533661 96.731384,360.243866 
	C99.083458,354.212585 101.353554,348.391541 103.895401,341.873657 
	C104.914581,343.133759 106.541481,344.571808 107.437706,346.373322 
	C109.274101,350.064819 110.717964,353.951538 112.337448,357.751923 
	C112.346581,357.773376 112.583153,357.744202 112.663940,357.678101 
	C112.789307,357.575531 112.871979,357.420807 113.110153,356.929321 
z"/>
<path fill="#222222" opacity="1.000000" stroke="none" 
	d="
M196.139420,346.866272 
	C194.588562,343.989929 193.037689,341.113556 191.331696,337.949524 
	C191.872971,337.575470 192.919067,336.852509 193.850983,336.208435 
	C196.961807,341.915497 199.977966,347.448914 203.447601,353.814301 
	C197.458878,351.922180 192.301163,350.292633 186.545258,348.417297 
	C185.703186,348.607269 185.459320,349.043091 185.215485,349.478912 
	C187.144424,352.888947 189.073364,356.298981 191.124130,359.924377 
	C190.459076,360.346100 189.390182,361.023956 188.634430,361.503204 
	C185.392090,355.841095 182.272186,350.392822 178.945053,344.582611 
	C184.243027,341.679962 189.212524,346.915771 195.356888,347.757416 
	C196.211700,347.859436 196.456253,347.803864 196.700806,347.748291 
	C196.513672,347.454315 196.326553,347.160278 196.139420,346.866272 
z"/>
<path fill="#232323" opacity="1.000000" stroke="none" 
	d="
M12.464575,210.419312 
	C14.286798,208.314194 15.859688,206.472839 18.246462,203.678665 
	C13.522997,204.269379 10.031765,204.705994 6.219792,205.182709 
	C6.140308,204.151443 6.044298,202.905762 5.978271,202.049088 
	C12.392165,201.459198 18.535997,200.894150 25.781784,200.227753 
	C21.177511,205.501190 17.138416,210.127319 12.387261,215.568985 
	C17.604208,214.970718 21.766642,214.493393 26.283689,213.975388 
	C26.451799,214.789978 26.703831,216.011230 26.890623,216.916351 
	C20.488789,217.628113 14.260633,218.320572 7.666598,219.053711 
	C5.924823,215.082504 10.470622,213.519653 12.464575,210.419312 
z"/>
<path fill="#232323" opacity="1.000000" stroke="none" 
	d="
M163.907410,10.832545 
	C164.266205,8.767239 164.526489,7.081242 164.885437,4.756181 
	C172.332748,6.293140 170.636185,15.194577 175.840317,19.349947 
	C176.864883,15.922925 177.856293,12.606803 178.945877,8.962307 
	C179.775192,9.164330 180.959122,9.452735 181.921280,9.687118 
	C179.956558,15.904387 178.090103,21.810751 175.873886,28.823870 
	C172.762482,22.396189 170.143402,16.985573 166.948975,10.386392 
	C165.464691,15.535473 164.304382,19.560692 163.023376,24.004646 
	C162.105255,23.748001 160.791351,23.380718 159.945251,23.144205 
	C161.306717,18.939541 162.557816,15.075698 163.907410,10.832545 
z"/>
<path fill="#1C1C1C" opacity="1.000000" stroke="none" 
	d="
M264.589508,154.182022 
	C262.804962,155.728714 261.318726,157.026855 259.672455,158.464737 
	C256.974823,152.890503 264.095581,152.080093 265.337921,147.755173 
	C262.857086,148.176056 260.700897,148.541870 258.074951,148.987396 
	C257.868378,147.871918 257.614746,146.502533 257.406494,145.378036 
	C263.743378,144.333572 269.932281,143.313507 276.490753,142.232513 
	C276.778046,144.322586 277.537262,146.802383 277.314911,149.190811 
	C277.137054,151.101669 276.196472,153.894745 274.813171,154.494568 
	C273.149963,155.215759 270.001709,154.734207 268.680756,153.502853 
	C266.689514,151.646713 266.016174,152.685059 264.589508,154.182022 
M270.357025,146.823242 
	C270.205048,148.112122 269.628723,149.579605 270.066711,150.620163 
	C270.313141,151.205704 272.742615,151.649612 273.285034,151.158798 
	C274.193909,150.336380 274.380463,148.715744 274.871002,147.431030 
	C273.622772,147.180756 272.374542,146.930466 270.357025,146.823242 
z"/>
<path fill="#1A1A1A" opacity="1.000000" stroke="none" 
	d="
M16.766411,120.052795 
	C15.869811,119.718925 14.769104,119.247093 14.797424,119.165070 
	C15.929151,115.887230 16.766939,112.415840 18.478771,109.452400 
	C20.915945,105.233292 25.081606,104.716362 29.406893,106.135979 
	C33.823002,107.585411 36.471931,112.132683 35.553925,116.824303 
	C34.954090,119.889824 33.801849,122.847244 33.036232,125.390694 
	C27.590086,123.582733 22.339476,121.839691 16.766411,120.052795 
M24.525204,119.020401 
	C26.685184,119.710632 28.845167,120.400871 30.967314,121.079018 
	C33.251938,117.895401 34.006432,114.575455 31.319771,112.246071 
	C29.341309,110.530731 25.730627,108.961884 23.579481,109.642395 
	C21.153246,110.409912 19.547285,113.770424 17.169018,116.475891 
	C20.373013,117.604546 22.078745,118.205406 24.525204,119.020401 
z"/>
<path fill="#262626" opacity="1.000000" stroke="none" 
	d="
M210.147705,27.201006 
	C211.649796,27.867157 213.118210,28.885700 214.586639,29.904245 
	C213.699722,30.647947 212.754486,31.333067 211.937073,32.146610 
	C209.705078,34.368065 207.235504,36.442413 205.471390,38.997196 
	C204.768311,40.015381 205.094925,42.912292 205.983932,43.578983 
	C207.211594,44.499641 210.199417,44.954418 211.058975,44.146500 
	C214.145584,41.245331 216.654068,37.729088 219.733765,34.020649 
	C220.646255,34.624725 221.955353,35.491364 223.295807,36.378750 
	C220.333923,39.689655 217.627426,42.904205 214.716232,45.921257 
	C211.100235,49.668736 207.904083,49.612301 203.891129,45.992538 
	C200.349365,42.797787 200.131622,40.056957 203.242142,36.043377 
	C205.471924,33.166222 207.819199,30.380123 210.147705,27.201006 
z"/>
<path fill="#202020" opacity="1.000000" stroke="none" 
	d="
M77.093597,41.570629 
	C78.375786,42.998451 79.657982,44.426277 81.128136,46.063412 
	C80.279427,46.795685 79.054451,47.852612 78.111656,48.666065 
	C73.999146,43.672741 70.010353,38.829624 65.837967,33.763592 
	C69.081711,31.787727 71.432747,26.265287 76.613907,28.757689 
	C78.641113,29.732876 79.208076,33.743584 80.440102,36.371777 
	C80.052994,36.635624 79.665886,36.899475 79.278786,37.163326 
	C82.304367,37.931183 85.329956,38.699039 88.496941,39.502781 
	C85.934883,44.121567 82.403290,41.216587 78.576447,40.390923 
	C77.399490,40.265907 76.837341,40.353523 76.275200,40.441143 
	C76.547997,40.817638 76.820801,41.194134 77.093597,41.570629 
M72.811745,31.610645 
	C67.115715,35.102421 73.482208,35.434292 73.889542,37.840969 
	C76.907150,34.942448 77.719971,32.879154 72.811745,31.610645 
z"/>
<path fill="#232323" opacity="1.000000" stroke="none" 
	d="
M19.178343,243.547668 
	C21.358364,242.993347 23.121296,242.508636 24.909807,242.152328 
	C27.859858,241.564590 29.027586,239.493668 27.914253,237.072922 
	C27.211521,235.544983 24.903019,233.638428 23.485834,233.768295 
	C19.434490,234.139542 15.470514,235.464188 10.984823,236.529633 
	C10.757808,235.841385 10.336619,234.564453 9.806184,232.956329 
	C10.672506,232.956329 11.111447,233.023712 11.522911,232.945847 
	C15.423945,232.207764 19.295113,231.250854 23.224705,230.740860 
	C27.646959,230.166916 30.215067,232.410248 31.083582,237.076508 
	C31.868296,241.292526 30.622683,244.229385 26.125664,245.318298 
	C22.001289,246.316986 17.910658,247.455048 13.550111,248.598602 
	C13.284848,247.310150 12.998083,245.917267 12.748041,244.702744 
	C14.922523,244.331787 16.847633,244.003387 19.178343,243.547668 
z"/>
<path fill="#212121" opacity="1.000000" stroke="none" 
	d="
M266.604248,119.979782 
	C268.155029,119.373711 269.325409,118.847969 270.708679,118.226585 
	C271.709625,121.717911 272.701660,125.178093 273.776550,128.927185 
	C272.520294,129.001022 271.444305,129.064270 270.183228,129.138397 
	C269.991394,126.991600 269.822083,125.096588 269.607727,122.697792 
	C267.666351,123.228264 266.143158,123.644478 264.268341,124.156776 
	C265.093353,126.193939 265.763031,127.847473 266.536163,129.756485 
	C265.602936,130.117218 264.430634,130.570374 263.169983,131.057693 
	C262.641174,128.949936 262.153290,127.005394 261.616302,124.865120 
	C259.600739,125.421745 258.024841,125.856941 255.576492,126.533081 
	C256.733826,129.016373 257.770935,131.241669 258.770752,133.387009 
	C254.558075,134.523438 254.558075,134.523438 252.377716,123.671875 
	C257.002441,122.465508 261.613129,121.262810 266.604248,119.979782 
z"/>
<path fill="#276095" opacity="1.000000" stroke="none" 
	d="
M200.412231,244.326019 
	C200.317581,241.673981 200.514313,238.741898 200.761902,235.051941 
	C194.845901,235.051941 189.089584,234.951828 183.345078,235.166885 
	C182.542892,235.196899 181.130035,236.773727 181.127060,237.638382 
	C181.075134,252.762634 181.196091,267.887543 181.308716,283.012054 
	C181.310745,283.282990 181.671082,283.551208 182.239548,284.126160 
	C181.556122,286.097565 180.497391,287.763550 179.394547,289.498932 
	C179.394547,272.036835 179.358810,255.125458 179.445892,238.214691 
	C179.455338,236.378601 178.312088,233.549713 182.565353,233.602264 
	C183.187073,233.754700 183.684341,233.763184 183.684341,233.763184 
	C183.684341,233.763184 184.077408,233.458481 184.077408,233.458481 
	C190.354248,233.458481 196.631073,233.458481 203.744736,233.458481 
	C202.594757,237.462051 201.649185,240.754013 200.412231,244.326019 
z"/>
<path fill="#2A2A2A" opacity="1.000000" stroke="none" 
	d="
M226.965851,328.971832 
	C224.039963,323.394257 221.236496,318.138947 217.869965,311.828125 
	C225.466843,313.943909 232.154556,315.806519 239.331085,317.805237 
	C238.496521,319.014374 237.621460,320.282196 237.550385,320.385162 
	C233.670898,320.385162 230.781342,320.385162 227.891785,320.385162 
	C228.371368,323.126190 228.850952,325.867249 229.330536,328.608276 
	C229.937195,328.702118 230.543854,328.795959 231.150513,328.889832 
	C230.232437,329.911987 229.314362,330.934113 227.870270,332.541931 
	C227.394089,330.564270 227.241165,329.929169 226.965851,328.971832 
z"/>
<path fill="#232323" opacity="1.000000" stroke="none" 
	d="
M12.114632,137.246643 
	C13.392457,139.016953 14.673508,140.392624 15.954558,141.768295 
	C16.452284,141.463760 16.950008,141.159225 17.447733,140.854691 
	C17.640007,139.131775 17.832283,137.408875 18.079262,135.195786 
	C19.097118,135.363419 20.396126,135.577347 21.736423,135.798096 
	C21.154093,137.858307 20.679703,139.536636 20.091164,141.618805 
	C22.034250,142.103027 23.687485,142.515015 26.264908,143.157318 
	C26.400278,140.173981 26.508623,137.786270 26.630320,135.104309 
	C27.461407,135.390778 28.636522,135.795837 30.242027,136.349243 
	C29.514355,139.962250 28.806747,143.475647 28.117435,146.898193 
	C21.757557,145.625687 15.589231,144.391510 9.256423,143.124435 
	C9.806977,140.103302 10.420290,136.737808 11.082740,133.102676 
	C12.049414,133.556290 12.977694,133.991898 14.059677,134.499619 
	C13.339325,135.372284 12.728592,136.112152 12.114632,137.246643 
z"/>
<path fill="#222222" opacity="1.000000" stroke="none" 
	d="
M107.515968,21.253525 
	C104.031784,11.865026 106.744904,8.157187 119.310944,4.946838 
	C119.705811,6.014594 120.115570,7.122603 120.531929,8.248466 
	C110.842430,8.057550 106.706329,11.658820 112.018532,20.719254 
	C114.322281,24.648516 118.682976,23.799999 123.915627,19.283485 
	C124.292336,19.494894 124.669044,19.706303 125.045753,19.917711 
	C124.266197,21.306808 123.830269,23.218510 122.648338,23.995678 
	C117.164017,27.601864 112.352226,26.696854 107.515968,21.253525 
z"/>
<path fill="#242424" opacity="1.000000" stroke="none" 
	d="
M133.735901,20.636408 
	C136.392868,14.350554 138.851273,8.392179 141.666595,1.568771 
	C144.897202,8.590937 147.829041,14.963710 150.892441,21.622456 
	C149.352524,21.622456 147.975494,21.622456 147.763885,21.622456 
	C145.374466,18.897827 143.441071,16.693195 141.507660,14.488564 
	C139.738968,16.697599 137.970261,18.906633 135.637756,21.819834 
	C135.663574,21.830349 134.600449,21.397118 133.735901,20.636408 
z"/>
<path fill="#262626" opacity="1.000000" stroke="none" 
	d="
M261.378784,92.901138 
	C258.216034,96.100426 255.060150,98.966751 250.774475,102.859192 
	C256.704712,102.859192 261.176453,102.859192 265.642487,102.859192 
	C266.190338,104.253685 266.605377,105.310173 267.133179,106.653717 
	C259.741608,106.246025 252.620438,105.853249 244.628677,105.412460 
	C249.976944,99.338242 254.665039,94.013809 259.605713,88.402527 
	C260.186188,89.761070 260.785919,91.164627 261.378784,92.901138 
z"/>
<path fill="#1F1F1F" opacity="1.000000" stroke="none" 
	d="
M46.069290,84.024414 
	C42.613159,79.316887 39.359989,74.902473 35.399155,69.527786 
	C43.122955,70.436050 50.072685,71.253288 57.392376,72.114037 
	C56.629238,73.519661 55.953873,74.763611 55.245407,76.068542 
	C51.585415,75.324677 47.458359,72.101364 45.722317,77.392731 
	C45.222649,81.446587 52.438507,82.259727 48.221226,87.156975 
	C47.502762,86.110245 46.887508,85.213890 46.069290,84.024414 
z"/>
<path fill="#222222" opacity="1.000000" stroke="none" 
	d="
M160.933823,367.958496 
	C159.873871,369.091766 158.799835,369.793091 157.236572,370.813904 
	C158.715927,363.168304 159.989166,356.587952 161.477936,348.893677 
	C166.093307,355.322479 170.165466,360.994629 174.415100,366.914001 
	C172.799088,367.289276 171.384476,367.617767 169.969864,367.946259 
	C170.200790,367.562561 170.431717,367.178864 170.662643,366.795135 
	C168.452927,365.089111 166.243195,363.383087 164.033478,361.677063 
	C162.995575,363.626892 161.957672,365.576721 160.933823,367.958496 
z"/>
<path fill="#1F1F1F" opacity="1.000000" stroke="none" 
	d="
M81.373230,341.881042 
	C79.001740,342.050476 76.972557,342.461609 74.945351,342.882233 
	C73.489738,343.184265 72.036774,343.498993 70.582634,343.808075 
	C70.451126,343.311676 70.319626,342.815247 70.188126,342.318848 
	C75.913582,339.001099 81.639038,335.683319 87.364502,332.365570 
	C87.764610,332.660706 88.164719,332.955872 88.564827,333.251007 
	C87.001526,339.753113 85.438225,346.255188 83.797836,353.077942 
	C82.581955,352.108551 81.475151,351.226105 81.145752,350.963501 
	C81.366524,347.544739 81.541451,344.835754 81.373230,341.881042 
z"/>
<path fill="#282828" opacity="1.000000" stroke="none" 
	d="
M275.449829,233.812439 
	C275.375580,235.401428 275.107147,236.698502 274.862579,237.880188 
	C272.165405,238.622711 269.565765,239.338379 267.069366,240.025620 
	C267.105560,244.298615 275.320953,244.276917 271.615601,250.043472 
	C266.759583,245.436264 263.245300,238.763275 254.508453,240.051971 
	C254.822495,238.275635 255.090149,236.761734 255.453094,234.708740 
	C262.624512,240.007111 268.837189,235.616745 275.449829,233.812439 
z"/>
<path fill="#252525" opacity="1.000000" stroke="none" 
	d="
M273.111725,172.609497 
	C271.043915,176.430817 268.379303,179.551178 264.349335,177.467056 
	C262.303192,176.408890 261.160156,172.975616 260.412506,170.384186 
	C260.158691,169.504364 262.368317,167.913803 263.452240,166.648026 
	C263.844238,166.976089 264.236206,167.304169 264.628174,167.632248 
	C264.207703,168.495514 263.369080,169.404907 263.458099,170.211960 
	C263.619537,171.675308 264.333496,173.077728 264.816833,174.505585 
	C266.083130,173.992157 267.640442,173.778091 268.548126,172.895767 
	C269.941010,171.541794 270.572266,169.228439 272.115234,168.256424 
	C273.530365,167.364944 276.728821,166.888748 277.372589,167.676041 
	C278.849915,169.482697 279.532440,172.123718 279.932953,174.526794 
	C280.073792,175.371933 278.450409,176.511078 276.837952,178.492401 
	C276.837952,174.817673 276.837952,172.767258 276.837952,170.716843 
	C275.658569,171.224457 274.479156,171.732056 273.111725,172.609497 
z"/>
<path fill="#232323" opacity="1.000000" stroke="none" 
	d="
M259.519104,211.390579 
	C260.061340,210.597748 260.596161,209.726166 260.993103,209.784988 
	C265.869965,210.507446 270.726654,211.366043 276.165771,212.287216 
	C276.165771,209.794098 276.165771,207.806778 276.165771,205.489105 
	C277.383118,205.674789 278.594330,205.859543 279.631439,206.017746 
	C279.021759,211.331848 278.437958,216.420532 277.816620,221.836319 
	C276.790680,221.836319 275.580078,221.836319 274.318573,221.836319 
	C274.882629,219.826874 275.418823,217.916565 276.133667,215.369827 
	C270.195862,214.809631 264.874359,214.307571 259.327789,213.784286 
	C259.354492,213.329742 259.401062,212.536957 259.519104,211.390579 
z"/>
<path fill="#232323" opacity="1.000000" stroke="none" 
	d="
M59.499451,60.488983 
	C55.939438,57.499973 52.648190,54.746113 49.046249,51.732292 
	C50.916496,49.388901 53.163628,46.573277 55.606590,43.512283 
	C56.503326,44.189667 57.480461,44.927776 58.502102,45.699509 
	C56.645519,47.230427 54.966061,48.615292 52.776390,50.420876 
	C54.212749,51.768261 55.250374,52.741611 56.776478,54.173183 
	C58.252872,52.208225 59.467525,50.591625 60.807346,48.808430 
	C61.641773,49.478558 62.653034,50.290699 63.879017,51.275284 
	C62.150715,52.522144 60.586494,53.650627 58.450371,55.191704 
	C61.516987,57.663033 63.622929,59.360172 66.052895,61.318432 
	C65.343552,62.227547 64.461914,63.357483 63.960621,63.999950 
	C62.544220,62.893215 61.156216,61.808674 59.499451,60.488983 
z"/>
<path fill="#2C2C2C" opacity="1.000000" stroke="none" 
	d="
M9.135485,171.451996 
	C7.994111,171.852707 7.031227,171.852707 5.692729,171.852707 
	C6.203010,166.323563 6.684128,161.110413 7.204885,155.467758 
	C8.214883,155.531342 9.410152,155.606583 10.719261,155.688995 
	C10.145280,157.718140 9.640429,159.502899 8.932933,162.004059 
	C14.830523,162.508469 20.165539,162.964752 25.815611,163.447968 
	C25.730503,164.632294 25.629286,166.040756 25.549479,167.151291 
	C20.022499,166.602737 14.773776,166.081802 8.830467,165.491928 
	C9.015744,167.622238 9.164859,169.336761 9.135485,171.451996 
z"/>
<path fill="#222222" opacity="1.000000" stroke="none" 
	d="
M73.846268,324.771851 
	C72.680542,323.053680 71.871696,321.378479 70.796806,319.152222 
	C66.223312,323.504486 62.293629,327.244080 58.273548,331.069702 
	C57.449890,330.162872 56.459167,329.072144 55.662903,328.195496 
	C59.772446,324.555023 63.756374,321.025818 68.306061,316.995422 
	C66.598007,315.611145 65.177795,314.460144 63.425831,313.040314 
	C63.882191,312.440704 64.616249,311.476227 65.496506,310.319672 
	C69.271751,314.416290 72.842186,318.290680 76.730049,322.509521 
	C75.997475,323.177826 75.100304,323.996307 73.846268,324.771851 
z"/>
<path fill="#740C01" opacity="1.000000" stroke="none" 
	d="
M128.610504,233.518372 
	C129.244324,234.018143 130.874725,234.929291 130.876343,235.843338 
	C130.903931,251.367081 130.729370,266.891174 130.307724,282.715942 
	C129.742630,278.408997 129.309433,273.804138 129.227188,269.193054 
	C129.017609,257.440582 128.964737,245.685287 128.610504,233.518372 
z"/>
<path fill="#222222" opacity="1.000000" stroke="none" 
	d="
M87.327538,18.776691 
	C88.263680,17.662769 89.447388,16.811913 90.493309,16.060095 
	C93.679733,21.731588 96.757751,27.210133 99.992996,32.968517 
	C99.221062,33.436737 97.884453,34.247456 97.125343,34.707897 
	C93.854744,29.342154 90.714920,24.190954 87.327538,18.776691 
z"/>
<path fill="#232323" opacity="1.000000" stroke="none" 
	d="
M268.177704,190.015686 
	C272.356995,190.017700 276.070526,190.017700 280.019989,190.017700 
	C280.019989,191.199722 280.019989,192.757248 280.019989,193.932648 
	C273.740906,193.932648 267.629089,193.932648 261.180420,193.932648 
	C261.180420,192.330109 261.180420,190.977692 261.180420,189.551407 
	C263.339691,189.704224 265.525818,189.858932 268.177704,190.015686 
z"/>
<path fill="#212121" opacity="1.000000" stroke="none" 
	d="
M215.007782,337.013641 
	C216.303696,338.276703 217.369553,339.273743 218.722702,340.539520 
	C217.755508,341.463135 216.657730,342.511444 215.873810,343.260040 
	C211.646255,338.453552 207.556473,333.803711 202.914413,328.525940 
	C203.504303,327.970734 204.631592,326.909698 205.592407,326.005341 
	C208.913651,329.889557 211.845673,333.318604 215.007782,337.013641 
z"/>
<path fill="#0C1669" opacity="1.000000" stroke="none" 
	d="
M183.201782,91.586472 
	C182.523453,93.487175 181.138840,95.037788 181.109833,96.613342 
	C180.913696,107.270279 181.047775,117.932861 180.957840,128.592636 
	C180.943375,130.307465 180.343307,132.017365 179.645950,133.857208 
	C179.300034,133.204895 179.322098,132.424942 179.594757,131.209442 
	C179.966553,130.530289 179.927994,130.314117 179.729660,130.125366 
	C179.660248,123.328270 179.590851,116.531174 179.755798,109.027420 
	C179.914291,107.274796 179.838425,106.228813 179.762558,105.182838 
	C179.684891,103.681351 179.607239,102.179871 179.768311,99.927841 
	C179.949020,98.280266 179.890976,97.383224 179.832916,96.486183 
	C179.748154,95.980209 179.663376,95.474236 179.796661,94.240776 
	C179.945755,91.839554 179.876770,90.165817 179.807770,88.492073 
	C180.192474,88.189873 180.577179,87.887672 180.961884,87.585472 
	C181.682159,88.806290 182.402420,90.027107 183.201782,91.586472 
z"/>
<path fill="#1D1D1D" opacity="1.000000" stroke="none" 
	d="
M252.136337,74.413788 
	C252.856903,75.687057 253.408279,76.685204 253.805115,77.403564 
	C248.177200,80.511009 242.668503,83.552628 236.976639,86.695389 
	C236.508881,85.879784 235.796860,84.638252 235.318130,83.803505 
	C241.000763,80.504707 246.483963,77.321678 252.136337,74.413788 
z"/>
<path fill="#111111" opacity="1.000000" stroke="none" 
	d="
M34.313782,281.147522 
	C36.746647,281.458191 39.172260,281.561035 40.864372,282.727722 
	C41.481754,283.153412 40.937630,286.757233 39.858826,287.727661 
	C38.788723,288.690247 35.935875,288.904846 34.647823,288.135925 
	C31.915808,286.505096 31.998911,283.841614 34.313782,281.147522 
z"/>
<path fill="#181818" opacity="1.000000" stroke="none" 
	d="
M244.381378,282.660278 
	C246.445755,281.727936 248.443375,280.470306 250.147980,280.787476 
	C251.280350,280.998169 252.638428,283.435211 252.695969,284.922089 
	C252.744125,286.166626 251.328476,287.998627 250.079086,288.659698 
	C246.783157,290.403564 244.173462,287.779572 244.381378,282.660278 
z"/>
<path fill="#191919" opacity="1.000000" stroke="none" 
	d="
M22.247959,187.349289 
	C16.377720,187.265579 10.936536,187.265579 5.208229,187.265579 
	C5.156763,186.543945 5.077970,185.439148 4.966678,183.878693 
	C11.579718,183.878693 17.984692,183.878693 24.435907,183.878693 
	C24.833920,187.069260 24.833920,187.069260 22.247959,187.349289 
z"/>
<path fill="#EBCB88" opacity="1.000000" stroke="none" 
	d="
M104.974594,287.387512 
	C105.715073,286.447571 106.453041,285.857025 107.367706,284.980774 
	C108.491035,287.415527 109.437675,290.136017 110.384323,292.856476 
	C109.908783,293.068695 109.433250,293.280914 108.957710,293.493103 
	C107.629173,291.574371 106.300629,289.655670 104.974594,287.387512 
z"/>
<path fill="#276095" opacity="1.000000" stroke="none" 
	d="
M187.412842,275.973633 
	C188.557617,272.826080 189.980225,269.472473 191.767654,266.096527 
	C190.651855,269.305328 189.171249,272.536438 187.412842,275.973633 
z"/>
<path fill="#276095" opacity="1.000000" stroke="none" 
	d="
M192.348495,265.888245 
	C193.015778,263.513458 193.950455,260.906677 195.256317,258.204651 
	C194.623642,260.625031 193.619766,263.140625 192.348495,265.888245 
z"/>
<path fill="#EBCB88" opacity="1.000000" stroke="none" 
	d="
M107.433281,234.910477 
	C106.290283,234.590927 105.355919,234.169800 104.230392,233.513733 
	C105.060204,232.869827 106.081154,232.460892 107.456024,232.066681 
	C107.873329,232.326141 107.936729,232.570862 108.000046,233.194916 
	C107.880615,233.985809 107.761261,234.397354 107.433281,234.910477 
z"/>
<path fill="#EBCB88" opacity="1.000000" stroke="none" 
	d="
M83.305023,233.810608 
	C84.015793,235.604706 84.432968,237.518341 84.749634,239.834595 
	C84.103218,238.134842 83.557320,236.032501 83.305023,233.810608 
z"/>
<path fill="#EBCB88" opacity="1.000000" stroke="none" 
	d="
M84.734802,242.233490 
	C85.593399,243.497818 86.241112,244.977921 86.814903,246.813950 
	C86.001961,245.596344 85.262939,244.022812 84.734802,242.233490 
z"/>
<path fill="#EBCB88" opacity="1.000000" stroke="none" 
	d="
M90.577019,258.984192 
	C91.355545,259.717529 91.962715,260.739746 92.475571,262.065979 
	C91.722725,261.337677 91.064194,260.305389 90.577019,258.984192 
z"/>
<path fill="#15228D" opacity="1.000000" stroke="none" 
	d="
M179.650208,88.845192 
	C179.876770,90.165817 179.945755,91.839554 179.940247,94.017761 
	C179.741364,92.747589 179.616989,90.972954 179.650208,88.845192 
z"/>
<path fill="#15228D" opacity="1.000000" stroke="none" 
	d="
M179.612640,105.526367 
	C179.838425,106.228813 179.914291,107.274796 179.875488,108.561447 
	C179.661453,107.824715 179.562103,106.847305 179.612640,105.526367 
z"/>
<path fill="#EBCB88" opacity="1.000000" stroke="none" 
	d="
M88.842194,233.024887 
	C88.414055,233.404785 87.867126,233.538666 87.179596,233.479996 
	C87.600464,233.117935 88.161926,232.948395 88.842194,233.024887 
z"/>
<path fill="#EBCB88" opacity="1.000000" stroke="none" 
	d="
M97.382355,274.054138 
	C97.976273,274.338837 98.454849,274.928467 98.871758,275.821014 
	C98.295723,275.535645 97.781364,274.947327 97.382355,274.054138 
z"/>
<path fill="#EBCB88" opacity="1.000000" stroke="none" 
	d="
M95.515915,269.989868 
	C96.091454,270.308167 96.520638,270.922119 96.878784,271.831238 
	C96.328354,271.512817 95.848961,270.899170 95.515915,269.989868 
z"/>
<path fill="#15228D" opacity="1.000000" stroke="none" 
	d="
M179.665497,96.795059 
	C179.890976,97.383224 179.949020,98.280266 179.887115,99.489891 
	C179.677475,98.902962 179.587769,98.003456 179.665497,96.795059 
z"/>
<path fill="#276095" opacity="1.000000" stroke="none" 
	d="
M185.300644,279.904114 
	C185.239899,279.500122 185.421799,278.913605 185.890274,278.189453 
	C185.965668,278.608429 185.754471,279.165039 185.300644,279.904114 
z"/>
<path fill="#EBCB88" opacity="1.000000" stroke="none" 
	d="
M89.206161,255.180511 
	C89.580338,255.373123 89.857773,255.863495 90.092728,256.646179 
	C89.736641,256.451721 89.423035,255.964996 89.206161,255.180511 
z"/>
<path fill="#276095" opacity="1.000000" stroke="none" 
	d="
M183.264069,283.297821 
	C183.185043,282.770752 183.431915,282.085602 184.037628,281.288544 
	C184.127640,281.830994 183.858795,282.485382 183.264069,283.297821 
z"/>
<path fill="#276095" opacity="1.000000" stroke="none" 
	d="
M186.360535,277.972015 
	C186.279282,277.547211 186.450455,276.940887 186.919830,276.197083 
	C187.016327,276.636566 186.814651,277.213531 186.360535,277.972015 
z"/>
<path fill="#EBCB88" opacity="1.000000" stroke="none" 
	d="
M102.850899,283.410278 
	C103.090317,283.386932 103.348625,283.581543 103.518814,284.024414 
	C103.154640,284.135406 102.967674,283.920593 102.850899,283.410278 
z"/>
<path fill="#EBCB88" opacity="1.000000" stroke="none" 
	d="
M101.337791,281.080383 
	C101.708984,280.938538 101.922737,281.157043 102.021309,281.723267 
	C101.777351,281.750183 101.535423,281.540070 101.337791,281.080383 
z"/>
<path fill="#EBCB88" opacity="1.000000" stroke="none" 
	d="
M93.310951,265.100494 
	C93.698135,264.965088 93.910614,265.195251 93.983124,265.782776 
	C93.731026,265.801392 93.495392,265.576721 93.310951,265.100494 
z"/>
<path fill="#EBCB88" opacity="1.000000" stroke="none" 
	d="
M92.892456,264.113342 
	C93.058266,264.056946 93.269829,264.298920 93.264595,264.458435 
	C93.081795,264.468567 92.904228,264.319153 92.892456,264.113342 
z"/>
<path fill="#276095" opacity="1.000000" stroke="none" 
	d="
M184.500702,281.209961 
	C184.359421,280.984253 184.473755,280.639343 184.838226,280.166077 
	C184.977692,280.388733 184.867020,280.739777 184.500702,281.209961 
z"/>
<path fill="#EBCB88" opacity="1.000000" stroke="none" 
	d="
M87.166168,249.144913 
	C87.419220,249.151917 87.628372,249.403183 87.768753,249.901855 
	C87.367378,250.002335 87.174805,249.748978 87.166168,249.144913 
z"/>
<path fill="#8BA0BA" opacity="1.000000" stroke="none" 
	d="
M183.883484,233.326981 
	C184.077408,233.458481 183.684341,233.763184 183.684341,233.763184 
	C183.684341,233.763184 183.187073,233.754700 183.000854,233.589096 
	C183.065170,233.189697 183.356812,233.113693 183.883484,233.326981 
z"/>
<path fill="#8BA0BA" opacity="1.000000" stroke="none" 
	d="
M158.531921,233.823013 
	C158.405502,233.760849 158.382721,233.430237 158.382721,233.430237 
	C158.382721,233.430237 158.757919,233.360641 158.773285,233.498016 
	C158.788666,233.635376 158.658325,233.885178 158.531921,233.823013 
z"/>
<path fill="#15228D" opacity="1.000000" stroke="none" 
	d="
M179.586655,130.314209 
	C179.927994,130.314117 179.966553,130.530289 179.751694,130.849731 
	C179.658035,130.925552 179.443649,130.503052 179.586655,130.314209 
z"/>
<path fill="#EBCB88" opacity="1.000000" stroke="none" 
	d="
M99.150291,277.175110 
	C99.406128,277.132843 99.653191,277.346832 99.894577,277.816406 
	C99.639778,277.858429 99.390648,277.644867 99.150291,277.175110 
z"/>
<path fill="#FDFDFC" opacity="1.000000" stroke="none" 
	d="
M195.968018,347.053162 
	C196.326553,347.160278 196.513672,347.454315 196.700806,347.748291 
	C196.456253,347.803864 196.211700,347.859436 195.733582,347.783173 
	C195.598862,347.514282 195.697739,347.377167 195.968018,347.053162 
z"/>
<path fill="#FDFDFC" opacity="1.000000" stroke="none" 
	d="
M185.522995,349.268341 
	C185.459320,349.043091 185.703186,348.607269 186.175735,348.376831 
	C186.213135,348.740662 186.021820,348.899200 185.522995,349.268341 
z"/>
<path fill="#E1E1E1" opacity="1.000000" stroke="none" 
	d="
M270.741669,146.751709 
	C272.374542,146.930466 273.622772,147.180756 274.870972,147.431030 
	C274.380463,148.715744 274.193909,150.336380 273.285034,151.158798 
	C272.742615,151.649612 270.313141,151.205704 270.066711,150.620163 
	C269.628723,149.579605 270.205048,148.112122 270.741669,146.751709 
z"/>
<path fill="#EEEEEE" opacity="1.000000" stroke="none" 
	d="
M24.154842,118.913338 
	C22.078745,118.205406 20.373013,117.604546 17.169018,116.475891 
	C19.547285,113.770424 21.153246,110.409912 23.579481,109.642395 
	C25.730627,108.961884 29.341309,110.530731 31.319771,112.246071 
	C34.006432,114.575455 33.251938,117.895401 30.967314,121.079018 
	C28.845167,120.400871 26.685184,119.710632 24.154842,118.913338 
z"/>
<path fill="#E5E5E5" opacity="1.000000" stroke="none" 
	d="
M73.196510,31.511919 
	C77.719971,32.879154 76.907150,34.942448 73.889542,37.840969 
	C73.482208,35.434292 67.115715,35.102421 73.196510,31.511919 
z"/>
<path fill="#FDFDFC" opacity="1.000000" stroke="none" 
	d="
M77.439079,41.327095 
	C76.820801,41.194134 76.547997,40.817638 76.275200,40.441143 
	C76.837341,40.353523 77.399490,40.265907 78.194824,40.356777 
	C78.213539,40.718033 77.999046,40.900795 77.439079,41.327095 
z"/>
</svg>